<?xml version="1.0" encoding="utf-8"?>
<!-- Generator: Adobe Illustrator 17.1.0, SVG Export Plug-In . SVG Version: 6.00 Build 0)  -->
<!DOCTYPE svg PUBLIC "-//W3C//DTD SVG 1.1//EN"  >

<svg data-v-2cb57da0="" version="1.0" xmlns="http://www.w3.org/2000/svg" width="100%" height="100%"
     viewBox="0 0 340.000000 340.000000" preserveAspectRatio="xMidYMid meet" color-interpolation-filters="sRGB"
     style="margin: auto;">
<rect  x="0" y="0" width="100%" height="100%" fill="#ffffff" fill-opacity="1"
      class="background"></rect>
<g   class="iconmbgsvg" transform="translate(101.25,56.308387756347656)">
    <g fill="#fed465"   mask="url(#2384b1fc-9d66-42ee-8d5d-0f3ab90bfb89)">
        <g mask="url(#32143226-5f90-42fe-b251-c017e6294525)">
            <g>
                <rect fill="#fed465" fill-opacity="0" stroke-width="2" x="0" y="0" width="137.5"
                      height="137.38322425937952" class="image-rect"></rect>
                <svg filter="url(#colors2156116639)" x="0" y="0" width="137.5" height="137.38322425937952"
                       class="image-svg-svg primary" style="overflow: visible;">
                    <svg xmlns="http://www.w3.org/2000/svg"
                         viewBox="0.0014691948890686035 -0.00414702296257019 416.7874450683594 416.43255615234375">
                        <g>
                            <path d="M415.65 162.72c-1.21-20.68-3.53-41.15-9.32-61.09-13.62-46.83-44.09-76.88-90.72-90.72-29.06-8.63-59-9.79-89-10.65-19.47-.56-39-.2-58.44.8C145.49 2.23 123 4.5 101.11 11 57.7 23.81 27.75 51 12.84 94.11c-9 26-11.62 53-12.31 80.17-.67 26.79-.92 53.62.58 80.43 1.16 20.7 3.6 41.12 9.35 61.08 10.93 38 33.73 66.06 69.8 82.8 16 7.43 33 11.3 50.41 13.89 25.8 3.84 51.76 4 80.91 3.94 12.32-.36 27.79.05 43.29-.9 20.68-1.28 41.14-3.58 61.07-9.4 43.93-12.84 73.71-40.65 88.46-84.19 8.65-25.53 11.24-52.07 11.87-78.74s.95-53.66-.62-80.47z"></path>
                        </g>
                    </svg>
                </svg>
                <defs>
                    <filter id="colors2156116639">
                        <feColorMatrix type="matrix"
                                       values="0 0 0 0 0.5  0 0 0 0 0.37109375  0 0 0 0 0.94921875  0 0 0 1 0"
                                        ></feColorMatrix>
                    </filter>
                    <filter id="colorsf493276740">
                        <feColorMatrix type="matrix"
                                       values="0 0 0 0 0.99609375  0 0 0 0 0.99609375  0 0 0 0 0.99609375  0 0 0 1 0"
                                        ></feColorMatrix>
                    </filter>
                    <filter id="colorsb882605523">
                        <feColorMatrix type="matrix" values="0 0 0 0 0  0 0 0 0 0  0 0 0 0 0  0 0 0 1 0"
                                        ></feColorMatrix>
                    </filter>
                </defs>
            </g>
            <rect  width="149.5" height="149.3832244873047" transform="translate(-6, -6)"
                  style="pointer-events:none;" fill="url(#vLqQ3S1OKqhTg7VSJ5y2e)"></rect>
        </g>
        <g transform="translate(18.380001068115234,41.01161193847656)">
            <g    class="tp-name" fill="url(#958aed46-1f0e-4aff-bbb6-d6b57ad6251b)">
                <g transform="scale(1)">
                    <g>
                        <path d="M35.6 0L5.79 0 5.79-10.59 32.93-10.59Q39.43-10.59 41.56-11.84L41.56-11.84Q44.68-13.71 44.68-17.44L44.68-17.44Q44.68-21.8 41.03-23.76L41.03-23.76Q38.98-24.92 34.44-24.92L34.44-24.92 23.41-24.92Q13.35-24.92 8.9-28.57L8.9-28.57Q6.14-30.88 4.58-34.35 3.03-37.82 3.03-41.83L3.03-41.83Q3.03-48.06 6.67-53.22L6.67-53.22Q10.23-58.21 18.07-59.1L18.07-59.1Q20.74-59.36 25.99-59.36L25.99-59.36 55.45-59.36 55.45-48.77 28.84-48.77Q22.87-48.68 20.91-48.24L20.91-48.24Q16.91-47.26 16.91-42.19L16.91-42.19Q16.91-37.91 20.29-36.49L20.29-36.49Q22.52-35.42 27.77-35.42L27.77-35.42 37.29-35.42Q44.59-35.42 48.15-34.18L48.15-34.18Q54.47-32.04 56.87-26.7L56.87-26.7Q58.74-22.43 58.74-17.53L58.74-17.53Q58.74-12.1 56.25-7.83L56.25-7.83Q52.78-1.78 45.84-0.53L45.84-0.53Q42.45 0 35.6 0L35.6 0ZM76.54 0L63.1 0 63.1-10.59 75.2-10.59Q80.9-10.59 83.62-10.99 86.33-11.39 87.75-12.64L87.75-12.64Q89.71-14.15 90.47-17 91.22-19.85 91.22-25.99L91.22-25.99 91.22-59.36 103.77-59.36 103.77-25.99Q103.77-19.76 103.33-16.55 102.88-13.35 101.55-10.5L101.55-10.5Q98.17-2.94 89.27-0.8L89.27-0.8Q85 0 76.54 0L76.54 0Z"
                              transform="translate(-3.0299999713897705, 59.36000061035156)"></path>
                    </g> <!----> <!----> <!----> <!----> <!----> <!----> <!---->
                </g>
            </g> <!---->
        </g>
    </g>
</g>
<mask id="2384b1fc-9d66-42ee-8d5d-0f3ab90bfb89">
    <g fill="white">
        <g>
            <rect fill-opacity="0" stroke-width="2" x="0" y="0" width="137.5" height="137.38322425937952"
                  class="image-rect"></rect>
            <svg x="0" y="0" width="137.5" height="137.38322425937952" class="image-svg-svg primary"
                 style="overflow: visible;">
                <svg xmlns="http://www.w3.org/2000/svg"
                     viewBox="0.0014691948890686035 -0.00414702296257019 416.7874450683594 416.43255615234375">
                    <g>
                        <path d="M415.65 162.72c-1.21-20.68-3.53-41.15-9.32-61.09-13.62-46.83-44.09-76.88-90.72-90.72-29.06-8.63-59-9.79-89-10.65-19.47-.56-39-.2-58.44.8C145.49 2.23 123 4.5 101.11 11 57.7 23.81 27.75 51 12.84 94.11c-9 26-11.62 53-12.31 80.17-.67 26.79-.92 53.62.58 80.43 1.16 20.7 3.6 41.12 9.35 61.08 10.93 38 33.73 66.06 69.8 82.8 16 7.43 33 11.3 50.41 13.89 25.8 3.84 51.76 4 80.91 3.94 12.32-.36 27.79.05 43.29-.9 20.68-1.28 41.14-3.58 61.07-9.4 43.93-12.84 73.71-40.65 88.46-84.19 8.65-25.53 11.24-52.07 11.87-78.74s.95-53.66-.62-80.47z"></path>
                    </g>
                </svg>
            </svg>
            <defs></defs>
        </g>
    </g>
    <g transform="translate(18.380001068115234,41.01161193847656)" fill="black">
        <g    class="tp-name">
            <g transform="scale(1)">
                <g>
                    <path d="M35.6 0L5.79 0 5.79-10.59 32.93-10.59Q39.43-10.59 41.56-11.84L41.56-11.84Q44.68-13.71 44.68-17.44L44.68-17.44Q44.68-21.8 41.03-23.76L41.03-23.76Q38.98-24.92 34.44-24.92L34.44-24.92 23.41-24.92Q13.35-24.92 8.9-28.57L8.9-28.57Q6.14-30.88 4.58-34.35 3.03-37.82 3.03-41.83L3.03-41.83Q3.03-48.06 6.67-53.22L6.67-53.22Q10.23-58.21 18.07-59.1L18.07-59.1Q20.74-59.36 25.99-59.36L25.99-59.36 55.45-59.36 55.45-48.77 28.84-48.77Q22.87-48.68 20.91-48.24L20.91-48.24Q16.91-47.26 16.91-42.19L16.91-42.19Q16.91-37.91 20.29-36.49L20.29-36.49Q22.52-35.42 27.77-35.42L27.77-35.42 37.29-35.42Q44.59-35.42 48.15-34.18L48.15-34.18Q54.47-32.04 56.87-26.7L56.87-26.7Q58.74-22.43 58.74-17.53L58.74-17.53Q58.74-12.1 56.25-7.83L56.25-7.83Q52.78-1.78 45.84-0.53L45.84-0.53Q42.45 0 35.6 0L35.6 0ZM76.54 0L63.1 0 63.1-10.59 75.2-10.59Q80.9-10.59 83.62-10.99 86.33-11.39 87.75-12.64L87.75-12.64Q89.71-14.15 90.47-17 91.22-19.85 91.22-25.99L91.22-25.99 91.22-59.36 103.77-59.36 103.77-25.99Q103.77-19.76 103.33-16.55 102.88-13.35 101.55-10.5L101.55-10.5Q98.17-2.94 89.27-0.8L89.27-0.8Q85 0 76.54 0L76.54 0Z"
                          transform="translate(-3.0299999713897705, 59.36000061035156)"></path>
                </g>
            </g>
        </g>
    </g>
</mask>
<defs  >
    <linearGradient x1="0" y1="1" x2="0" y2="0" id="958aed46-1f0e-4aff-bbb6-d6b57ad6251b">
        <stop offset="0%" stop-color="#ff5857"></stop>
        <stop offset="100%" stop-color="#f09819"></stop>
    </linearGradient>
    <filter id="42443b3f1de60f6b6fd3b6a9844b4764" filterUnits="userSpaceOnUse">
        <feColorMatrix type="matrix"
                       values="0 0 0 0 0.99609375  0 0 0 0 0.99609375  0 0 0 0 0.99609375  0 0 0 1 0"></feColorMatrix>
    </filter>
</defs>
<defs >
    <filter id="8ca246c8-638b-4e98-9f31-7bffd5f523d9" filterUnits="userSpaceOnUse">
        <feColorMatrix type="matrix"
                       values="0 0 0 0 0.99609375  0 0 0 0 0.99609375  0 0 0 0 0.99609375  0 0 0 1 0"></feColorMatrix>
    </filter>

    <filter id="42443b3f1de60f6b6fd3b6a9844b4764" filterUnits="userSpaceOnUse">
        <feColorMatrix type="matrix"
                       values="0 0 0 0 0.99609375  0 0 0 0 0.99609375  0 0 0 0 0.99609375  0 0 0 1 0"></feColorMatrix>
    </filter>
</defs>
</svg>


